<svg xmlns="http://www.w3.org/2000/svg" xmlns:xlink="http://www.w3.org/1999/xlink" width="328" height="328" viewBox="0 0 328 328">
  <defs>
    <linearGradient id="center_2-c" x1="99.182%" x2="0%" y1="50%" y2="50%">
      <stop offset="0%" stop-color="#E93800"/>
      <stop offset="100%" stop-color="#FF9E7F"/>
    </linearGradient>
    <path id="center_2-b" d="M30.5,82 C47.3446849,82 61,68.3446849 61,51.5 C61,44.0960527 56.5081648,34.1113823 47.5244945,21.5459889 C44.429739,17.2173773 38.5882409,10.035381 30,0 C21.6674984,10.062447 16.0017458,17.2627921 13.0027421,21.6010353 C4.33424737,34.1405461 0,44.1068677 0,51.5 C0,68.3446849 13.6553151,82 30.5,82 Z"/>
    <filter id="center_2-a" width="300%" height="248.8%" x="-100%" y="-72%" filterUnits="objectBoundingBox">
      <feOffset dy="2" in="SourceAlpha" result="shadowOffsetOuter1"/>
      <feGaussianBlur in="shadowOffsetOuter1" result="shadowBlurOuter1" stdDeviation="20"/>
      <feColorMatrix in="shadowBlurOuter1" values="0 0 0 0 0.056   0 0 0 0 0.304   0 0 0 0 0.8  0 0 0 0.5 0"/>
    </filter>
    <linearGradient id="center_2-d" x1="99.182%" x2="0%" y1="50%" y2="50%">
      <stop offset="0%" stop-color="#E93800"/>
      <stop offset="100%" stop-color="#FF9E7F"/>
    </linearGradient>
  </defs>
  <g fill="none" fill-rule="evenodd" transform="translate(134 123)">
    <use fill="#000" filter="url(#center_2-a)" xlink:href="#center_2-b"/>
    <use fill="url(#center_2-c)" xlink:href="#center_2-b"/>
    <g transform="translate(6 27)">
      <circle cx="24.5" cy="24.5" r="24.5" fill="#FFF"/>
      <path fill="url(#center_2-d)" d="M38,28 L38,35.5 C38,36.3295 36.2975714,37 35.4285714,37 L35.4285714,37 L26,37 L26,28 L38,28 Z M23,28 L23,37 L13.5714286,37 C12.704,37 12,36.3295 12,35.5 L12,35.5 L12,28 L23,28 Z M29.25,10 C32.145,10 34.5,12.355 34.5,15.25 C34.5,16.144 34.383,16.8835 34.1865,17.5 L34.1865,17.5 L39,18 C39.3295,17.5 40,18.172 40,19 L40,19 L40,24 C40,24.328 39.3295,25 39,25 L39,25 L26,25 L26,21 L23,21 L23,25 L11,25 C9.672,25 9,24.328 9,24 L9,24 L9,19 C9,18.172 9.672,17.5 11,18 L11,18 L14,18 C13.6185,16.8835 13.5,16.144 13.5,15.25 C13.5,12.355 15.855,10 18.75,10 C21.285,10 22.9545,12.151 24,14.323 C25.0455,12.151 26.7165,10 29.25,10 Z M29.25,13 C27.8355,13 26.6355,15.448 25.959,17.5 L25.959,17.5 L30,17.5 C30.561,17.5 31.5,17.5 31.5,15.25 C31.5,14.0095 30.4905,13 29.25,13 Z M18.75,13 C17.5095,13 16.5,14.0095 16.5,15.25 C16.5,17.5 17.439,17.5 18,17.5 L18,17.5 L22.047,17.5 C21.321,15.2875 20.082,13 18.75,13 Z"/>
    </g>
  </g>
</svg>
