<svg xmlns="http://www.w3.org/2000/svg" width="48" height="48" viewBox="0 0 48 48">
  <g fill="none" fill-rule="evenodd">
    <path fill="#CEDAE6" fill-rule="nonzero" d="M24,48 C37.25484,48 48,37.25484 48,24 C48,10.74516 37.25484,0 24,0 C10.74516,0 0,10.74516 0,24 C0,37.25484 10.74516,48 24,48 Z"/>
    <path fill="#BEC9D6" fill-rule="nonzero" d="M47.99994,24 C47.99994,37.26 37.25244,48 23.99994,48 C16.45494,48 9.71994,44.52 5.317458,39.0675 C9.43494,42.3975 14.67744,44.385 20.38494,44.385 C33.63744,44.385 44.38494,33.645 44.38494,20.385 C44.38494,14.6775 42.39744,9.435 39.06744,5.317494 C44.51244,9.72 47.99994,16.455 47.99994,24 Z"/>
    <path fill="#BEC9D6" fill-rule="nonzero" d="M13.80594,31.6635 C18.9033,31.6635 23.03544,27.5313 23.03544,22.434 C23.03544,17.3367 18.9033,13.2045 13.80594,13.2045 C8.70864,13.2045 4.576464,17.3367 4.576464,22.434 C4.576464,27.5313 8.70864,31.6635 13.80594,31.6635 Z"/>
    <path fill="#FFF" fill-rule="nonzero" d="M21.70656,22.437 C21.46356,26.8275 17.73156,30.384 13.36806,30.384 C9.00456,30.384 5.653554,26.826 5.896554,22.437 C6.13956,18.048 9.88656,14.475 14.24856,14.475 C18.61206,14.475 21.94956,18.0465 21.70656,22.437 Z"/>
    <path fill="#3E4347" fill-rule="nonzero" d="M14.5455 6.837C14.5455 6.837 9.669 6.1515 4.549512 12.078 4.549512 12.078 7.86 1.461 14.5455 6.837zM33.45456 6.837C33.45456 6.837 38.33106 6.1515 43.45056 12.078 43.45056 12.078 40.14006 1.461 33.45456 6.837zM35.57406 40.6515C35.57406 45.618 30.39306 40.6515 24.00006 40.6515 17.60706 40.6515 12.42606 45.618 12.42606 40.6515 12.42606 34.218 17.60856 31.659 24.00006 31.659 30.39156 31.659 35.57406 34.218 35.57406 40.6515z"/>
    <path fill="#E24B4B" fill-rule="nonzero" d="M31.4895,42.2955 C31.707,41.7435 31.809,41.145 31.725,40.5075 C31.4295,38.271 29.2065,36.513 26.715,36.3465 C25.2975,36.252 23.991,36.6735 23.07,37.443 C22.587,37.242 22.0545,37.119 21.4785,37.08 C19.074,36.918 16.71,38.3595 16.1235,40.515 C15.945,41.1705 15.9735,41.8125 16.1355,42.414 C18.201,41.7705 20.9595,40.6515 24,40.6515 C26.859,40.6515 29.4705,41.6415 31.4895,42.2955 Z"/>
    <path fill="#FFF" fill-rule="nonzero" d="M13.341,36.5235 C15.993,35.406 19.6905,33.9285 23.877,33.9285 C28.1415,33.9285 31.962,35.46 34.686,36.5835 C32.943,33.114 28.8165,31.6575 24,31.6575 C19.2105,31.659 15.1005,33.0975 13.341,36.5235 Z"/>
    <path fill="#3E4347" fill-rule="nonzero" d="M17.5454759,22.4295 C17.55444,24.498 15.86994,26.1825 13.80144,26.1735359 C11.73294,26.1825 10.04694,24.4965 10.0559041,22.428 C10.04694,20.3595 11.73144,18.675 13.79994,18.6839641 C15.86994,18.6765 17.55444,20.361 17.5454759,22.4295 Z"/>
    <path fill="#FFF" fill-rule="nonzero" d="M15.68568,20.5506 C15.24924,20.11422 14.6685,19.98744 14.38848,20.2674 C14.10846,20.54742 14.2353,21.12816 14.67168,21.5646 C15.10806,22.00098 15.68886,22.12782 15.96888,21.8478 C16.24884,21.56778 16.12206,20.98704 15.68568,20.5506 Z"/>
    <path fill="#BEC9D6" fill-rule="nonzero" d="M34.20294,31.6635 C39.3003,31.6635 43.43244,27.5313 43.43244,22.434 C43.43244,17.3367 39.3003,13.2045 34.20294,13.2045 C29.10564,13.2045 24.97344,17.3367 24.97344,22.434 C24.97344,27.5313 29.10564,31.6635 34.20294,31.6635 Z"/>
    <path fill="#FFF" fill-rule="nonzero" d="M42.102,22.437 C41.859,26.8275 38.127,30.384 33.7635,30.384 C29.4,30.384 26.049,26.826 26.292,22.437 C26.535,18.0465 30.282,14.4764995 34.644,14.4764995 C39.009,14.475 42.3465,18.0465 42.102,22.437 Z"/>
    <path fill="#3E4347" fill-rule="nonzero" d="M37.9425359,22.4295 C37.9515,24.498 36.267,26.1825 34.1985,26.1735359 C32.13,26.1825 30.444,24.4965 30.4544512,22.428 C30.4455,20.3595 32.13,18.675 34.1985,18.6839641 C36.267,18.6765 37.9515,20.361 37.9425359,22.4295 Z"/>
    <path fill="#FFF" fill-rule="nonzero" d="M36.08046,20.55306 C35.64408,20.11668 35.06328,19.9899 34.78326,20.26992 C34.5033,20.54988 34.63008,21.13068 35.06646,21.56706 C35.5029,22.0035 36.08364,22.13028 36.36366,21.85026 C36.64368,21.57024 36.51684,20.9895 36.08046,20.55306 Z"/>
  </g>
</svg>
