<svg xmlns="http://www.w3.org/2000/svg" width="48" height="48" viewBox="0 0 48 48">
  <g fill="none" fill-rule="evenodd">
    <circle cx="24" cy="24" r="24" fill="#00C634" fill-rule="nonzero"/>
    <path fill="#00A62C" fill-rule="nonzero" d="M48,24 C48,37.26 37.2525,48 24,48 C16.455,48 9.72,44.52 5.3175,39.0675 C9.435,42.3975 14.6775,44.385 20.385,44.385 C33.6375,44.385 44.385,33.645 44.385,20.385 C44.385,14.6775 42.3975,9.435 39.0675,5.3175 C44.5125,9.72 48,16.455 48,24 Z"/>
    <path fill="#3E4347" fill-rule="nonzero" d="M40.4355,30.3075 C38.6655,37.7475 31.9905,43.2975 23.9955,43.2975 C16.0005,43.2975 9.3255,37.7475 7.5555,30.2925 C7.4205,29.7225 7.9455,29.2275 8.5005,29.3925 C18.9105,32.4975 29.2455,32.5575 39.4905,29.4075 C40.0605,29.2275 40.5705,29.7375 40.4355,30.3075 Z"/>
    <path fill="#E24B4B" fill-rule="nonzero" d="M23.0295,37.005 C16.8855,37.005 12.5085,35.1975 13.3605,39.4695 C13.365,39.492 13.374,39.513 13.3785,39.5355 C16.278,41.886 19.968,43.296 23.9955,43.296 C28.023,43.296 31.713,41.8845 34.6125,39.537 C34.617,39.513 34.626,39.492 34.6305,39.4695 C35.4825,35.1975 29.175,37.005 23.0295,37.005 Z"/>
    <path fill="#FFF" fill-rule="nonzero" d="M8.7405,29.4555 C9.648,32.7105 16.113,35.2215 23.9655,35.2215 C31.7895,35.2215 38.2335,32.7285 39.1785,29.49 C29.115,32.52 18.9645,32.4585 8.7405,29.4555 Z"/>
    <circle cx="34.013" cy="20.119" r="9.229" fill="#00A62C" fill-rule="nonzero"/>
    <path fill="#FFF" fill-rule="nonzero" d="M41.913,20.1225 C41.67,24.513 37.938,28.0695 33.5745,28.0695 C29.2125,28.0695 25.86,24.5115 26.103,20.1225 C26.346,15.732 30.093,12.162 34.455,12.162 C38.817,12.162 42.156,15.7335 41.913,20.1225 Z"/>
    <path fill="#3E4347" fill-rule="nonzero" d="M37.7520359,20.1165 C37.761,22.185 36.0765,23.8695 34.008,23.8605359 C31.9395,23.8695 30.2535,22.1835 30.2639512,20.115 C30.255,18.0465 31.9395,16.362 34.008,16.3709641 C36.0765,16.362 37.761,18.048 37.7520359,20.1165 Z"/>
    <ellipse cx="35.382" cy="18.743" fill="#FFF" fill-rule="nonzero" rx="1.117" ry="1" transform="rotate(-135 35.382 18.743)"/>
    <circle cx="13.989" cy="20.119" r="9.229" fill="#00A62C" fill-rule="nonzero"/>
    <path fill="#FFF" fill-rule="nonzero" d="M6.0885,20.1225 C6.3315,24.513 10.0635,28.0695 14.427,28.0695 C18.789,28.0695 22.1415,24.5115 21.8985,20.1225 C21.6555,15.732 17.9085,12.162 13.5465,12.162 C9.183,12.162 5.8455,15.7335 6.0885,20.1225 Z"/>
    <path fill="#3E4347" fill-rule="nonzero" d="M10.2479641,20.1165 C10.239,22.185 11.9235,23.8695 13.992,23.8605359 C16.0605,23.8695 17.745,22.1835 17.7360359,20.115 C17.745,18.0465 16.0605,16.362 13.992,16.3709641 C11.925,16.362 10.239,18.048 10.2479641,20.1165 Z"/>
    <ellipse cx="12.618" cy="18.745" fill="#FFF" fill-rule="nonzero" rx="1" ry="1.117" transform="rotate(-135 12.618 18.745)"/>
    <path fill="#3E4347" fill-rule="nonzero" d="M10.0455 1.587C10.0455 1.587 5.169.9015.0495 6.828.0495 6.828 3.36-3.789 10.0455 1.587zM28.9545 1.587C28.9545 1.587 33.831.9015 38.9505 6.828 38.9505 6.828 35.64-3.789 28.9545 1.587z" transform="translate(4.5 5.25)"/>
  </g>
</svg>
