<svg xmlns="http://www.w3.org/2000/svg" width="48" height="48" viewBox="0 0 48 48">
  <g fill="none" fill-rule="evenodd">
    <circle cx="24" cy="24" r="24" fill="#FFD93B" fill-rule="nonzero"/>
    <path fill="#F4C534" fill-rule="nonzero" d="M48,24 C48,37.26 37.2525,48 24,48 C16.455,48 9.72,44.52 5.3175,39.0675 C9.435,42.3975 14.6775,44.385 20.385,44.385 C33.6375,44.385 44.385,33.645 44.385,20.385 C44.385,14.6775 42.3975,9.435 39.0675,5.3175 C44.5125,9.72 48,16.455 48,24 Z"/>
    <path fill="#3E4347" fill-rule="nonzero" d="M40.4355,22.0065 C41.5095,24.318 29.0505,26.7105 27.9105,24.045 C27.603,23.19 28.6215,21.7815 32.2455,20.2305 C34.809,19.0725 36.7935,18.237 37.2525,18.8505 C37.626,19.35 36.6795,20.8245 34.6575,22.0755 C37.671,21.6495 40.122,21.303 40.4355,22.0065 Z"/>
    <path fill="#F4C534" fill-rule="nonzero" d="M22.521,22.3815 C22.521,26.5395 19.167,29.892 15.0105,29.892 C10.8705,29.892 7.5,26.5395 7.5,22.3815 C7.5,18.2415 10.8705,14.871 15.0105,14.871 C19.167,14.871 22.521,18.2415 22.521,22.3815 Z"/>
    <path fill="#FFF" fill-rule="nonzero" d="M21.4875,22.3815 C21.279,25.713 18.2145,28.4055 14.6325,28.4055 C11.0505,28.4055 8.325,25.713 8.5335,22.3815 C8.742,19.05 11.8065,16.3575 15.3885,16.3575 C18.9705,16.3575 21.696,19.05 21.4875,22.3815 Z"/>
    <path fill="#3E4347" fill-rule="nonzero" d="M19.374,22.176 C19.374,24.177 17.7495,25.8195 15.7305,25.8375 C13.728,25.8375 12.0855,24.195 12.0855,22.194 C12.0855,20.157 13.728,18.5325 15.747,18.5325 C17.7495,18.5325 19.374,20.175 19.374,22.176 Z"/>
    <path fill="#5A5F63" fill-rule="nonzero" d="M17.835,21.474 C17.5275,21.783 16.962,21.7305 16.569,21.3375 C16.1925,20.9445 16.1235,20.379 16.4325,20.0715 C16.758,19.764 17.322,19.815 17.7165,20.208 C18.0915,20.6025 18.159,21.1665 17.835,21.474 Z"/>
    <path fill="#3E4347" fill-rule="nonzero" d="M24.88575 20.409C24.09675 19.794 21.08325 26.6535 15.01275 28.38 11.94525 29.463 8.97375 28.911 6.74775 28.251 5.10075 27.6165 4.79175 29.0595 6.47325 30.492 8.87775 32.061 12.23625 34.0245 16.06575 32.784 23.68575 30.3945 25.84125 20.7195 24.88575 20.409zM16.15125 4.7865C18.12375 3.669 22.23825 1.8285 26.56425 2.85 27.02175 2.958 27.36975 2.346 26.98425 2.0775 22.41075-1.101 18.54525-.657 15.53025 4.179 15.29625 4.5555 15.76575 5.004 16.15125 4.7865zM11.03625 4.7865C9.06375 3.669 4.94925 1.8285.62325 2.85.16575 2.958-.18225 2.346.20325 2.0775 4.77675-1.101 8.64225-.657 11.65725 4.179 11.89125 4.5555 11.42175 5.004 11.03625 4.7865z" transform="translate(10.406 9)"/>
  </g>
</svg>
